<?xml version="1.0" encoding="UTF-8"?>
<!-- Generated by Pixelmator Pro 3.7.1 -->
<svg width="100" height="100" viewBox="0 0 100 100" xmlns="http://www.w3.org/2000/svg">
    <g id="surface1">
        <path id="Path" fill="#020202" stroke="none" d="M 73.329262 63.723164 L 68.382416 63.723164 L 61.110039 43.263847 L 65.908997 43.263847 L 70.976936 58.976727 L 71.053032 58.976727 L 75.932358 43.263847 L 80.484825 43.263847 Z M 58.937756 46.616039 L 54.953274 46.616039 L 54.953274 57.534248 C 54.953274 58.009007 54.98114 58.428024 55.021862 58.766678 C 55.0583 59.113899 55.147247 59.403252 55.296211 59.637947 C 55.433384 59.879074 55.642361 60.048397 55.912422 60.169498 C 56.214634 60.306671 56.601513 60.354897 57.09341 60.354897 C 57.391331 60.354897 57.70105 60.346325 58.016121 60.33025 C 58.325829 60.322746 58.62804 60.282024 58.937756 60.201649 L 58.937756 63.682442 C 58.45443 63.739239 57.979683 63.778893 57.503857 63.843193 C 57.052681 63.883915 56.573643 63.908569 56.086033 63.908569 C 54.925411 63.908569 53.990913 63.794968 53.273964 63.593494 C 52.568802 63.352371 52.01582 63.021221 51.609653 62.594692 C 51.215279 62.14352 50.944145 61.611969 50.799469 60.950748 C 50.66658 60.282024 50.590492 59.549 50.545483 58.694874 L 50.545483 46.616039 L 47.217937 46.616039 L 47.217937 43.263847 L 50.545483 43.263847 L 50.545483 37.139233 L 54.953274 37.139233 L 54.953274 43.263847 L 58.937756 43.263847 Z M 40.344223 60.976471 C 39.127872 62.752228 37.875088 64.518349 35.888203 64.554787 C 33.938828 64.591217 33.309757 63.396305 31.081749 63.396305 C 28.853739 63.396305 28.15715 64.518349 26.311728 64.591217 C 24.397718 64.663025 22.939173 62.675068 21.714249 60.908955 C 19.220465 57.292057 17.302168 50.692688 19.873114 46.240955 C 21.149477 44.029022 23.422497 42.626198 25.892704 42.588692 C 27.777779 42.556541 29.54711 43.853264 30.703447 43.853264 C 31.835135 43.853264 33.873455 42.338989 36.263287 42.513676 C 37.205288 42.586544 39.872684 42.866253 41.59272 45.408268 C 41.456619 45.493999 38.42271 47.2644 38.454861 50.948818 C 38.491299 55.354465 42.313957 56.82159 42.358967 56.837666 C 42.322533 56.94376 41.745972 58.928501 40.344223 60.976471 Z M 32.089119 36.961334 C 33.184372 35.675323 35.043724 34.716179 36.575146 34.65509 C 36.769119 36.436211 36.055386 38.235554 34.992283 39.516201 C 33.923828 40.807571 32.181286 41.809586 30.473036 41.676693 C 30.232983 39.927723 31.099964 38.100525 32.089119 36.961334 Z M 100.100739 27.349495 C 100.100739 26.349625 100.100739 25.358322 100.096451 24.350952 C 100.024643 22.184029 99.887474 19.999962 99.48774 17.848038 C 99.121223 15.665039 98.472862 13.618141 97.46978 11.651619 C 96.470978 9.702248 95.181755 7.921127 93.629967 6.373627 C 92.095337 4.843277 90.305641 3.537979 88.36377 2.546677 C 86.369385 1.539307 84.34285 0.886658 82.158775 0.507286 C 80.02829 0.112907 77.836723 -0.015694 75.656937 -0.072487 C 74.661346 -0.088562 73.646477 -0.096069 72.655174 -0.120712 L 27.461636 -0.120712 C 26.462835 -0.096069 25.479038 -0.088562 24.467379 -0.072487 C 22.304741 -0.015694 20.117456 0.112907 17.945173 0.507286 C 15.772891 0.886658 13.746356 1.539307 11.764832 2.546677 C 9.811172 3.537979 8.037552 4.843277 6.498629 6.373627 C 4.94363 7.921127 3.654407 9.702248 2.67061 11.651619 C 1.648234 13.618141 1.01166 15.665039 0.629072 17.848038 C 0.237912 19.999962 0.100737 22.184029 0.052512 24.350952 C 0.020362 25.358322 0.016075 26.349625 0 27.349495 L 0 72.530182 C 0.016075 73.537552 0.020362 74.528847 0.052512 75.536224 C 0.100737 77.711716 0.237912 79.894714 0.629072 82.046638 C 1.01166 84.230713 1.648234 86.269035 2.67061 88.251633 C 3.654407 90.184929 4.94363 91.974625 6.498629 93.497467 C 8.037552 95.052467 9.811172 96.34919 11.764832 97.332993 C 13.746356 98.347862 15.772891 98.993011 17.945173 99.379883 C 20.117456 99.766762 22.304741 99.895363 24.467379 99.959663 C 25.479038 99.984306 26.462835 99.991814 27.461636 99.991814 C 28.65012 100.000381 29.826817 100.000381 31.019588 100.000381 L 69.133659 100.000381 C 70.297501 100.000381 71.485985 100.000381 72.655174 99.991814 C 73.646477 99.991814 74.661346 99.984306 75.656937 99.959663 C 77.836723 99.895363 80.02829 99.766762 82.158775 99.379883 C 84.34285 98.993011 86.369385 98.347862 88.36377 97.332993 C 90.305641 96.34919 92.095337 95.052467 93.629967 93.497467 C 95.181755 91.974625 96.470978 90.184929 97.46978 88.251633 C 98.472862 86.269035 99.121223 84.230713 99.48774 82.046638 C 99.887474 79.894714 100.024643 77.711716 100.096451 75.536224 C 100.100739 74.528847 100.100739 73.537552 100.100739 72.530182 C 100.137169 71.353485 100.137169 70.185356 100.137169 68.976509 L 100.137169 30.902092 C 100.137169 29.710388 100.137169 28.525116 100.100739 27.349495"/>
    </g>
</svg>
