<?xml version="1.0" encoding="UTF-8"?>
<!-- Generated by Pixelmator Pro 3.7.1 -->
<svg width="100" height="100" viewBox="0 0 100 100" xmlns="http://www.w3.org/2000/svg">
    <path id="Path" fill="#000000" stroke="none" d="M 10.19375 75.774994 C 2.775 73.646873 1.546875 69.262497 4.9125 66.715637 C 7.3375 65.121872 10.125 63.734375 13.075 62.690628 L 13.346874 62.606251 L 35.275002 54.743748 L 35.275002 63.775002 L 19.55625 69.521873 C 16.803125 70.581253 16.334375 71.990631 18.621876 72.746872 C 19.762499 73.037498 21.06875 73.206253 22.415625 73.206253 C 24.3375 73.206253 26.178125 72.865623 27.88125 72.243752 L 27.771875 72.278122 L 35.340626 69.521873 L 35.340626 77.62188 C 34.871876 77.737495 34.340626 77.793747 33.818748 77.90625 C 31.396875 78.331253 28.609375 78.574997 25.765625 78.574997 C 20.209375 78.574997 14.871875 77.643753 9.896875 75.931252 L 10.240624 76.03437 Z M 56.403126 76.700005 L 80.990623 67.815628 C 83.78125 66.80938 84.215622 65.375 81.950005 64.621872 C 80.815628 64.34375 79.515625 64.184372 78.175003 64.184372 C 76.231247 64.184372 74.362495 64.521873 72.631248 65.137497 L 72.746872 65.103127 L 56.325001 70.959381 L 56.325001 61.637508 L 57.262497 61.306252 C 60.543751 60.215622 64.400002 59.368748 68.378128 58.928127 L 68.637505 58.903133 C 70.099998 58.746876 71.793755 58.659374 73.509377 58.659374 C 79.375 58.659374 85 59.693748 90.206245 61.593746 L 89.868752 61.484371 C 97.084373 63.831253 97.834373 67.231247 96.021873 69.574997 C 94.274994 71.31562 92.162498 72.693748 89.80938 73.581253 L 89.6875 73.621872 L 56.321877 85.756248 L 56.321877 76.790627 Z M 38.221874 13.275002 L 38.221874 81.796875 L 53.509373 86.72187 L 53.509373 29.253128 C 53.509373 26.559372 54.696877 24.759377 56.609375 25.384377 C 59.09375 26.087502 59.578125 28.5625 59.578125 31.262497 L 59.578125 54.206253 C 69.109375 58.865623 76.612503 54.196877 76.612503 41.896873 C 76.612503 29.256248 72.215622 23.640625 59.281246 19.140625 C 53.703125 17.115623 46.65625 15.096878 39.446877 13.5 L 38.231251 13.275002 Z"/>
</svg>
