<?xml version="1.0" encoding="UTF-8"?>
<!-- Generated by Pixelmator Pro 3.7.1 -->
<svg width="24" height="24" viewBox="0 0 24 24" xmlns="http://www.w3.org/2000/svg">
    <path id="Path" fill="#000000" stroke="none" d="M 6.04725 11.66625 C 6.47625 11.6625 6.82275 11.31375 6.82275 10.884 C 6.82275 10.45425 6.47625 10.1055 6.048 10.10175 L 0.7875 10.10175 C 0.76875 10.101001 0.75375 10.086 0.75375 10.0665 C 0.75375 10.0665 0.75375 10.0665 0.75375 10.0665 L 0.75375 10.0665 L 0.75375 9.62025 C 0.75375 9.62025 0.75375 9.62025 0.75375 9.62025 C 0.75375 9.6015 0.76875 9.586499 0.7875 9.586499 C 0.7875 9.586499 0.7875 9.586499 0.7875 9.586499 L 6.55425 9.586499 C 7.25475 9.605999 7.81575 10.179 7.81575 10.88325 C 7.81575 11.5875 7.2555 12.159749 6.55575 12.18 L 6.55425 12.18 L 2.565 12.18 C 2.13375 12.18 1.78425 12.5295 1.78425 12.96075 C 1.78425 12.96075 1.78425 12.961499 1.78425 12.961499 L 1.78425 12.961499 L 1.78425 14.37975 C 1.78425 14.3985 1.76925 14.413501 1.7505 14.413501 C 1.7505 14.413501 1.7505 14.413501 1.7505 14.413501 L 0.78825 14.413501 C 0.78825 14.413501 0.78825 14.413501 0.78825 14.413501 C 0.7695 14.413501 0.7545 14.3985 0.7545 14.37975 C 0.7545 14.37825 0.7545 14.3775 0.7545 14.375999 L 0.7545 14.375999 L 0.7545 12.95775 C 0.7575 12.243751 1.3365 11.66625 2.0505 11.66625 C 2.05125 11.66625 2.05125 11.66625 2.052 11.66625 L 2.052 11.66625 Z M 16.212749 11.39775 L 16.212749 9.62025 C 16.212749 9.6015 16.227749 9.586499 16.2465 9.586499 L 23.095501 9.586499 C 23.11425 9.586499 23.129999 9.6015 23.130749 9.62025 L 23.130749 10.0665 C 23.129999 10.08525 23.115 10.101001 23.095501 10.10175 L 17.276251 10.10175 C 17.2575 10.10175 17.2425 10.11675 17.2425 10.1355 C 17.2425 10.1355 17.2425 10.1355 17.2425 10.1355 L 17.2425 10.1355 L 17.2425 11.293499 C 17.2425 11.29425 17.2425 11.295 17.2425 11.29575 C 17.2425 11.5005 17.408251 11.66625 17.612999 11.66625 C 17.612999 11.66625 17.61375 11.66625 17.61375 11.66625 L 21.946499 11.66625 C 22.67325 11.705251 23.247002 12.3045 23.247002 13.03725 C 23.247002 13.77 22.672501 14.368501 21.949501 14.407499 L 21.945749 14.407499 L 16.2465 14.407499 C 16.2465 14.407499 16.2465 14.407499 16.2465 14.407499 C 16.227749 14.407499 16.212749 14.3925 16.212749 14.373751 C 16.212749 14.373751 16.212749 14.373751 16.212749 14.373751 L 16.212749 14.373751 L 16.212749 13.92975 C 16.212749 13.911 16.227749 13.896 16.2465 13.896 L 21.42975 13.896 C 21.43725 13.896 21.446251 13.896 21.45525 13.896 C 21.929251 13.896 22.314001 13.512001 22.314001 13.03725 C 22.314001 12.5625 21.93 12.1785 21.45525 12.1785 C 21.444 12.1785 21.432749 12.1785 21.421499 12.17925 L 21.422998 12.17925 L 16.99275 12.17925 C 16.561501 12.17925 16.211998 11.829749 16.211998 11.3985 C 16.211998 11.3985 16.211998 11.39775 16.211998 11.39775 L 16.211998 11.39775 Z M 10.54725 14.407499 C 11.262751 14.407499 11.84325 13.827001 11.84325 13.111501 L 11.84325 13.111501 L 11.84325 10.8825 C 11.84325 10.45125 12.19275 10.10175 12.624001 10.10175 C 12.624001 10.10175 12.62475 10.10175 12.62475 10.10175 L 15.14025 10.10175 C 15.158999 10.101001 15.174001 10.086 15.174001 10.0665 C 15.174001 10.0665 15.174001 10.0665 15.174001 10.0665 L 15.174001 10.0665 L 15.174001 9.62025 C 15.174001 9.6015 15.158999 9.586499 15.14025 9.586499 L 12.1095 9.586499 C 12.1095 9.586499 12.10875 9.586499 12.10875 9.586499 C 11.39325 9.586499 10.81275 10.167 10.81275 10.8825 L 10.81275 10.8825 L 10.81275 13.11375 C 10.81275 13.545 10.46325 13.89525 10.032001 13.89525 L 7.55175 13.89525 C 7.533 13.89525 7.518 13.910251 7.518 13.929001 L 7.518 13.929001 L 7.518 14.37525 C 7.518 14.394 7.533 14.408999 7.55175 14.408999 C 7.55175 14.408999 7.55175 14.408999 7.55175 14.408999 L 7.55175 14.408999 Z"/>
</svg>
