<svg xmlns="http://www.w3.org/2000/svg" viewBox="0 0 640 640"><!--! Font Awesome Pro 7.0.0 by @fontawesome - https://fontawesome.com License - https://fontawesome.com/license (Commercial License) Copyright 2025 Fonticons, Inc. --><path fill="currentColor" d="M495.2 60.8C494.1 55.6 490.6 51.3 485.7 49.2C480.8 47.1 475.2 47.7 470.8 50.6L400 97.6L329.3 50.7C324.9 47.8 319.3 47.2 314.4 49.3C309.5 51.4 305.9 55.7 304.9 60.9L288 144L204.8 160.8C199.6 161.9 195.3 165.4 193.2 170.3C191.1 175.2 191.7 180.8 194.6 185.2L209.7 208C211.7 207.9 213.8 207.9 215.9 207.9C249.2 207.9 280.3 217.6 306.3 234.3C316.1 191.7 354.3 159.9 399.9 159.9C452.9 159.9 495.9 202.9 495.9 255.9C495.9 273.1 491.4 289.3 483.4 303.3C489.8 312.2 495.3 321.9 499.7 332.1C516.3 339.2 531.3 349.1 544.2 361.3L595 351C600.2 349.9 604.5 346.4 606.6 341.5C608.7 336.6 608.1 331 605.2 326.6L558.3 255.9L605.2 185.2C608.1 180.8 608.7 175.2 606.6 170.3C604.5 165.4 600.2 161.8 595 160.8L512 144L495.2 60.8zM360 240C392.2 240 422.1 250 446.7 267.1C447.6 263.5 448 259.8 448 256C448 229.5 426.5 208 400 208C379.1 208 361.3 221.4 354.7 240.1C356.5 240 358.2 240 360 240zM144 376C144 336.2 176.2 304 216 304C244.9 304 269.9 321.1 281.4 345.8C284.7 352.9 291.3 358 299 359.4C306.7 360.8 314.7 358.2 320.2 352.7C330.4 342.4 344.4 336.1 360 336.1C390.9 336.1 416 361.2 416 392.1C416 405.4 426.7 416.1 440 416.1C470.9 416.1 496 441.2 496 472.1C496 503 470.9 528.1 440 528.1L136 528.1C105.1 528.1 80 503 80 472.1C80 444.7 99.8 421.8 125.9 417C138.9 414.6 147.6 402.1 145.2 389.1C144.4 384.9 144 380.6 144 376.1zM216 256C149.7 256 96 309.7 96 376C58.4 391.7 32 428.7 32 472C32 529.4 78.6 576 136 576L440 576C497.4 576 544 529.4 544 472C544 422 508.7 380.3 461.7 370.3C451.7 323.3 410 288 360 288C341.7 288 324.6 292.7 309.7 301C287.7 273.6 254 256 216 256z"/></svg>